<svg width="17" height="17" viewBox="0 0 17 17" fill="none" xmlns="http://www.w3.org/2000/svg">
<path fill-rule="evenodd" clip-rule="evenodd" d="M13.0101 4.39388L12.3529 4.40633L13.807 9.20003C13.6064 9.24984 13.4168 9.30933 13.2384 9.37712C13.4141 9.31071 13.5994 9.2526 13.7959 9.2028C15.0715 8.91642 16.1257 9.33423 17 10.3276L15.9112 10.8408L11.2863 13.0225C11.2503 12.7389 11.2337 12.4733 11.2393 12.2229C11.2379 12.2589 11.2351 12.2962 11.2351 12.3336H5.92676C5.92538 13.4722 5.00122 14.3936 3.86263 14.3936C2.72404 14.3936 1.79989 13.4708 1.7985 12.3336H0.0608733C-0.059488 9.972 1.05558 8.15552 3.00903 7.9812H0.380454C0.171551 7.9812 0.0013843 7.80965 0.0013843 7.60213V7.18571C0.0013843 6.97957 0.170167 6.81217 0.37492 6.81217H0.408123V3.95947C0.408123 3.7727 0.561687 3.61914 0.748455 3.61914H5.64592C5.83268 3.61914 5.98625 3.7727 5.98625 3.95947V6.81079H8.40731C8.66325 6.80249 8.79883 6.9187 8.80021 7.17464V7.98258V8.51107C7.71004 9.36881 7.54403 10.7094 8.53874 11.4648H10.1519C10.1934 10.1795 10.928 9.39648 12.1482 8.53044L11.4205 6.28784C11.1203 5.59058 11.3181 5.06209 11.7567 4.69271C11.6197 4.25277 11.5215 3.87646 11.5519 3.56934L10.7896 3.72705C10.542 3.77824 10.4784 3.86678 10.3981 3.62744C10.3843 3.58594 10.3732 3.54582 10.3663 3.50431C10.304 3.17643 10.3428 3.19857 10.6084 3.14738L11.4219 2.98966H11.664L11.9628 2.82227C12.1413 2.71989 12.3267 2.65902 12.5162 2.63411L12.7777 2.61751C13.0461 2.61751 13.3477 2.54281 13.5026 2.79045C13.5054 2.7946 13.5068 2.80981 13.5081 2.83195C13.6174 2.8693 13.7115 2.95093 13.7821 3.06299C13.8692 3.19857 13.9218 3.38395 13.9218 3.58594C13.9218 3.78792 13.8678 3.97331 13.7821 4.10889C13.6852 4.26107 13.5455 4.35791 13.385 4.36206C13.2923 4.42847 13.1457 4.39111 13.0101 4.39388ZM2.73234 5.97656H1.00855V6.27954H2.73234V5.97656ZM4.04248 3.91658H2.79736V5.26961L3.45036 4.76326L4.04248 5.26961V3.91658ZM2.73234 6.76514H1.00855V7.06811H2.73234V6.76514ZM15.9057 10.845L14.0657 11.7166L14.6633 11.4426C15.0742 11.5298 15.3813 11.895 15.3813 12.3308C15.3813 12.833 14.9746 13.2397 14.4724 13.2397C13.9702 13.2397 13.5635 12.833 13.5635 12.3308C13.5635 12.1759 13.6022 12.0306 13.67 11.9019L12.4138 12.4968C12.4982 13.5593 13.3878 14.3949 14.471 14.3949C15.611 14.3949 16.5352 13.4708 16.5352 12.3308C16.5379 11.747 16.2958 11.2199 15.9057 10.845ZM13.504 3.18612C13.4957 3.45174 13.4777 3.79346 13.4653 4.02311C13.4874 4.00374 13.5095 3.97884 13.5289 3.94702C13.587 3.8571 13.6216 3.72843 13.6216 3.58455C13.6216 3.44067 13.5856 3.31201 13.5289 3.22209C13.5206 3.20963 13.5123 3.19718 13.504 3.18612ZM4.77018 12.3336H2.95231C2.9537 12.8344 3.36043 13.2384 3.86125 13.2384C4.36206 13.2384 4.7688 12.8344 4.77018 12.3336Z" fill="#166931"/>
</svg>
