<svg width="126" height="22" viewBox="0 0 126 22" fill="none" xmlns="http://www.w3.org/2000/svg">
<path d="M36.9999 1.83333L39.8324 7.57166L46.1666 8.4975L41.5833 12.9617L42.6649 19.2683L36.9999 16.2892L31.3349 19.2683L32.4166 12.9617L27.8333 8.4975L34.1674 7.57166L36.9999 1.83333Z" fill="#FFA033" stroke="#FFA033" stroke-linecap="round" stroke-linejoin="round"/>
<path d="M10.9999 1.83333L13.8324 7.57166L20.1666 8.4975L15.5833 12.9617L16.6649 19.2683L10.9999 16.2892L5.33492 19.2683L6.41659 12.9617L1.83325 8.4975L8.16742 7.57166L10.9999 1.83333Z" fill="#FFA033" stroke="#FFA033" stroke-linecap="round" stroke-linejoin="round"/>
<path d="M62.9999 1.83333L65.8324 7.57166L72.1666 8.4975L67.5833 12.9617L68.6649 19.2683L62.9999 16.2892L57.3349 19.2683L58.4166 12.9617L53.8333 8.4975L60.1674 7.57166L62.9999 1.83333Z" fill="#FFA033" stroke="#FFA033" stroke-linecap="round" stroke-linejoin="round"/>
<path d="M88.9999 1.83333L91.8324 7.57166L98.1666 8.4975L93.5833 12.9617L94.6649 19.2683L88.9999 16.2892L83.3349 19.2683L84.4166 12.9617L79.8333 8.4975L86.1674 7.57166L88.9999 1.83333Z" fill="#FFA033" stroke="#FFA033" stroke-linecap="round" stroke-linejoin="round"/>
<path d="M115 1.83333L117.832 7.57166L124.167 8.4975L119.583 12.9617L120.665 19.2683L115 16.2892L109.335 19.2683L110.417 12.9617L105.833 8.4975L112.167 7.57166L115 1.83333Z" fill="#FFA033" stroke="#FFA033" stroke-linecap="round" stroke-linejoin="round"/>
</svg>
